<svg version="1.1" xmlns="http://www.w3.org/2000/svg" xmlns:xlink="http://www.w3.org/1999/xlink" role="img" width="403" height="90" viewbox="0 0 403 90"><title>anchor-boxes</title><desc>Generated by logo.svg, https://github.com/bubkoo/logo.svg</desc><path fill="#2b68a7" d="M12.01 70.99Q9.19 70.99 7.34 69.46Q5.48 67.92 4.62 65.26Q3.75 62.61 3.75 59.28Q3.75 56.27 4.55 52.98Q5.35 49.68 6.95 46.58Q8.55 43.47 10.86 40.94Q13.16 38.42 16.17 36.91Q19.18 35.41 22.82 35.41Q25.13 35.41 27.08 36.05Q29.03 36.69 30.31 37.71L33.13 36.11L35.18 36.11L30.82 56.59Q30.70 57.30 30.44 58.64Q30.18 59.98 30.02 61.39Q29.86 62.80 29.86 63.70Q29.86 66.96 31.98 66.96Q33 66.96 34.18 66.48Q35.37 66 36.58 65.30L37.74 67.15Q36.84 67.98 35.30 68.88Q33.77 69.78 32.04 70.38Q30.31 70.99 28.71 70.99Q26.41 70.99 25.06 69.58Q23.72 68.18 23.72 65.68Q23.72 64.40 23.88 63.34Q24.04 62.29 24.36 60.69L23.98 60.69Q21.74 65.62 18.76 68.30Q15.78 70.99 12.01 70.99M14.31 66.96Q15.98 66.96 17.74 65.68Q19.50 64.40 21.06 62.22Q22.63 60.05 23.85 57.36Q25.06 54.67 25.64 51.92L28.01 40.59Q27.30 39.44 25.96 38.86Q24.62 38.29 23.14 38.29Q20.58 38.29 18.54 39.73Q16.49 41.17 14.95 43.54Q13.42 45.90 12.36 48.72Q11.30 51.54 10.79 54.38Q10.28 57.23 10.28 59.54Q10.28 63.50 11.43 65.23Q12.58 66.96 14.31 66.96ZM67.50 70.99Q64.68 70.99 63.18 69.20Q61.67 67.41 61.67 64.59Q61.67 61.65 62.89 55.95L63.98 50.96Q64.17 50.13 64.49 48.75Q64.81 47.38 65.06 45.94Q65.32 44.50 65.32 43.34Q65.32 42.06 64.78 40.82Q64.23 39.57 62.38 39.57Q60.33 39.57 58.38 41.04Q56.42 42.51 54.73 44.82Q53.03 47.12 51.85 49.58Q50.66 52.05 50.28 53.97L46.82 70.35L40.87 70.35L46.25 44.62Q46.44 43.73 46.54 42.90Q46.63 42.06 46.63 41.74Q46.63 39.82 45.29 39.28Q43.94 38.74 42.15 38.74L41.64 38.74L42.22 36.05L54.06 36.05L52.33 44.11L52.97 44.11Q55.59 39.89 58.31 37.68Q61.03 35.47 64.62 35.47Q68.39 35.47 69.93 37.62Q71.46 39.76 71.46 42.58Q71.46 44.18 71.05 46.06Q70.63 47.95 70.31 49.62L68.65 57.17Q68.26 58.96 68.04 60.69Q67.82 62.42 67.82 63.89Q67.82 66.96 70.06 66.96Q71.91 66.96 74.15 65.49L75.30 67.34Q73.77 68.62 71.88 69.81Q69.99 70.99 67.50 70.99ZM91.62 70.99Q88.17 70.99 85.35 69.52Q82.54 68.05 80.84 65.14Q79.14 62.22 79.14 57.74Q79.14 54.22 80.36 50.32Q81.58 46.42 84.01 43.02Q86.44 39.63 89.99 37.52Q93.54 35.41 98.22 35.41Q103.02 35.41 105.29 37.30Q107.56 39.18 107.56 41.55Q107.56 43.34 106.09 44.69Q104.62 46.03 101.86 46.03Q101.86 42.96 100.68 40.72Q99.50 38.48 96.94 38.48Q94.89 38.48 93.16 39.86Q91.43 41.23 90.06 43.44Q88.68 45.65 87.75 48.30Q86.82 50.96 86.31 53.58Q85.80 56.21 85.80 58.26Q85.80 62.42 87.59 64.69Q89.38 66.96 92.84 66.96Q96.23 66.96 98.47 65.49Q100.71 64.02 102.06 62.35Q102.70 62.80 102.70 63.95Q102.70 65.36 101.51 66.99Q100.33 68.62 97.90 69.81Q95.46 70.99 91.62 70.99ZM137 70.99Q134.18 70.99 132.68 69.20Q131.18 67.41 131.18 64.59Q131.18 61.65 132.39 55.95L133.48 50.96Q133.67 50.13 133.99 48.75Q134.31 47.38 134.57 45.94Q134.82 44.50 134.82 43.34Q134.82 42.06 134.28 40.82Q133.74 39.57 131.88 39.57Q129.83 39.57 127.88 41.04Q125.93 42.51 124.23 44.82Q122.54 47.12 121.35 49.58Q120.17 52.05 119.78 53.97L116.33 70.35L110.38 70.35L118.70 30.80Q118.95 29.52 119.11 28.62Q119.27 27.73 119.27 27.41Q119.27 25.49 117.96 24.94Q116.65 24.40 114.79 24.40L114.28 24.40L114.86 21.71L126.63 21.71L124.14 33.49Q123.43 36.88 122.66 39.89Q121.90 42.90 121.58 44.11L122.28 44.11Q124.84 39.89 127.69 37.68Q130.54 35.47 134.12 35.47Q137.90 35.47 139.43 37.62Q140.97 39.76 140.97 42.58Q140.97 44.18 140.55 46.06Q140.14 47.95 139.82 49.62L138.15 57.17Q137.77 58.96 137.54 60.69Q137.32 62.42 137.32 63.89Q137.32 66.96 139.56 66.96Q141.42 66.96 143.66 65.49L144.81 67.34Q143.27 68.62 141.38 69.81Q139.50 70.99 137 70.99ZM160.94 70.99Q155.50 70.99 152.07 67.70Q148.65 64.40 148.65 57.74Q148.65 54.22 149.80 50.32Q150.95 46.42 153.32 43.02Q155.69 39.63 159.27 37.52Q162.86 35.41 167.72 35.41Q171.11 35.41 173.86 36.75Q176.62 38.10 178.25 41.04Q179.88 43.98 179.88 48.66Q179.88 51.41 179.18 54.45Q178.47 57.49 177 60.43Q175.53 63.38 173.29 65.74Q171.05 68.11 167.94 69.55Q164.84 70.99 160.94 70.99M161.64 67.73Q164.78 67.73 166.98 65.71Q169.19 63.70 170.57 60.53Q171.94 57.36 172.58 53.90Q173.22 50.45 173.22 47.57Q173.22 42.77 171.56 40.72Q169.90 38.67 166.95 38.67Q164.46 38.67 162.54 40.02Q160.62 41.36 159.24 43.57Q157.86 45.78 157.00 48.46Q156.14 51.15 155.72 53.87Q155.30 56.59 155.30 58.90Q155.30 63.76 157.03 65.74Q158.76 67.73 161.64 67.73ZM185.45 70.35L190.82 44.62Q191.02 43.73 191.11 42.90Q191.21 42.06 191.21 41.74Q191.21 39.82 189.54 39.28Q187.88 38.74 186.09 38.74L185.58 38.74L186.15 36.05L197.48 36.05L196.14 45.26L196.78 45.26Q197.99 42.64 199.40 40.40Q200.81 38.16 202.79 36.78Q204.78 35.41 207.66 35.41Q210.34 35.41 211.62 36.66Q212.90 37.90 212.90 39.82Q212.90 42.06 211.66 43.38Q210.41 44.69 207.59 44.69Q207.59 42.38 207.08 41.01Q206.57 39.63 205.03 39.63Q203.37 39.63 201.67 41.36Q199.98 43.09 198.47 45.94Q196.97 48.78 195.75 52.14Q194.54 55.50 193.83 58.70L191.40 70.35L185.45 70.35ZM213.48 55.31L214.50 50.51L231.14 50.51L230.12 55.31L213.48 55.31ZM246.57 70.99Q244.20 70.99 242.18 70.29Q240.17 69.58 239.08 68.69L236.20 70.54L234.15 70.54L242.60 30.80Q242.92 29.52 243.05 28.62Q243.18 27.73 243.18 27.41Q243.18 25.49 241.83 24.94Q240.49 24.40 238.70 24.40L238.18 24.40L238.76 21.71L250.86 21.71L247.78 36.11Q247.53 37.33 247.08 38.96Q246.63 40.59 246.18 42.13Q245.74 43.66 245.48 44.56L245.80 44.56Q248.04 40.27 250.79 37.84Q253.54 35.41 257.51 35.41Q261.29 35.41 263.46 38.35Q265.64 41.30 265.64 46.99Q265.64 50.90 264.36 55.09Q263.08 59.28 260.62 62.90Q258.15 66.51 254.60 68.75Q251.05 70.99 246.57 70.99M246.31 68.11Q248.87 68.11 250.92 66.64Q252.97 65.17 254.50 62.74Q256.04 60.30 257.06 57.46Q258.09 54.61 258.60 51.86Q259.11 49.10 259.11 46.93Q259.11 42.83 257.93 41.14Q256.74 39.44 255.08 39.44Q252.97 39.44 251.11 41.04Q249.26 42.64 247.78 44.98Q246.31 47.31 245.32 49.55Q244.33 51.79 244.07 53.14L241.32 65.81Q242.15 66.83 243.43 67.47Q244.71 68.11 246.31 68.11ZM283.43 70.99Q277.99 70.99 274.57 67.70Q271.14 64.40 271.14 57.74Q271.14 54.22 272.30 50.32Q273.45 46.42 275.82 43.02Q278.18 39.63 281.77 37.52Q285.35 35.41 290.22 35.41Q293.61 35.41 296.36 36.75Q299.11 38.10 300.74 41.04Q302.38 43.98 302.38 48.66Q302.38 51.41 301.67 54.45Q300.97 57.49 299.50 60.43Q298.02 63.38 295.78 65.74Q293.54 68.11 290.44 69.55Q287.34 70.99 283.43 70.99M284.14 67.73Q287.27 67.73 289.48 65.71Q291.69 63.70 293.06 60.53Q294.44 57.36 295.08 53.90Q295.72 50.45 295.72 47.57Q295.72 42.77 294.06 40.72Q292.39 38.67 289.45 38.67Q286.95 38.67 285.03 40.02Q283.11 41.36 281.74 43.57Q280.36 45.78 279.50 48.46Q278.63 51.15 278.22 53.87Q277.80 56.59 277.80 58.90Q277.80 63.76 279.53 65.74Q281.26 67.73 284.14 67.73ZM303.85 70.35L304.55 67.66L305.38 67.66Q306.60 67.66 307.53 67.34Q308.46 67.02 309.48 66.06Q310.50 65.10 312.04 63.25L320.23 53.33L316.07 43.34Q314.92 40.59 314.12 39.66Q313.32 38.74 311.46 38.74L310.63 38.74L311.14 36.05L319.66 36.05L324.52 48.98L333.03 36.05L340.90 36.05L340.20 38.74L339.37 38.74Q338.15 38.74 337.19 39.12Q336.23 39.50 335.21 40.50Q334.18 41.49 332.71 43.34L325.99 51.98L330.41 63.06Q331.43 65.87 332.30 66.77Q333.16 67.66 335.02 67.66L335.85 67.66L335.34 70.35L326.76 70.35L321.58 56.27L311.98 70.35L303.85 70.35ZM355.30 70.99Q351.85 70.99 349.03 69.52Q346.22 68.05 344.52 65.14Q342.82 62.22 342.82 57.74Q342.82 54.22 344.04 50.32Q345.26 46.42 347.69 43.02Q350.12 39.63 353.67 37.52Q357.22 35.41 361.90 35.41Q365.93 35.41 368.17 37.36Q370.41 39.31 370.41 42.77Q370.41 46.16 368.01 49.07Q365.61 51.98 361.42 53.78Q357.22 55.57 351.85 55.57L349.61 55.57Q349.54 56.27 349.51 56.94Q349.48 57.62 349.48 58.26Q349.48 62.42 351.27 64.69Q353.06 66.96 356.52 66.96Q359.59 66.96 361.99 65.49Q364.39 64.02 365.74 62.35Q366.38 62.80 366.38 63.95Q366.38 65.36 365.19 66.99Q364.01 68.62 361.58 69.81Q359.14 70.99 355.30 70.99M350.18 52.62L350.82 52.62Q354.54 52.62 357.48 51.38Q360.42 50.13 362.12 47.92Q363.82 45.71 363.82 42.77Q363.82 38.48 360.10 38.48Q358.25 38.48 356.68 39.73Q355.11 40.98 353.83 43.06Q352.55 45.14 351.62 47.63Q350.70 50.13 350.18 52.62ZM383.78 70.99Q378.98 70.99 376.10 69.07Q373.22 67.15 373.22 63.76Q373.22 62.03 373.90 61.14Q374.57 60.24 375.53 59.89Q376.49 59.54 377.26 59.54Q377.26 61.78 377.96 63.70Q378.66 65.62 380.26 66.77Q381.86 67.92 384.55 67.92Q387.75 67.92 389.61 66.45Q391.46 64.98 391.46 61.97Q391.46 59.73 389.99 58.13Q388.52 56.53 385 54.93Q381.48 53.26 379.37 51.06Q377.26 48.85 377.26 45.01Q377.26 40.91 380.58 38.19Q383.91 35.47 389.61 35.47Q393.13 35.47 395.30 36.37Q397.48 37.26 398.54 38.67Q399.59 40.08 399.59 41.55Q399.59 43.60 398.28 44.56Q396.97 45.52 394.79 45.52Q394.79 43.86 394.25 42.19Q393.70 40.53 392.46 39.47Q391.21 38.42 389.03 38.42Q386.15 38.42 384.49 39.98Q382.82 41.55 382.82 43.92Q382.82 46.10 384.39 47.54Q385.96 48.98 389.35 50.51Q392.87 52.11 394.95 54.42Q397.03 56.72 397.03 60.43Q397.03 65.10 393.48 68.05Q389.93 70.99 383.78 70.99Z"></path></svg>